<svg width="30" height="30" viewBox="0 0 30 30" fill="none" xmlns="http://www.w3.org/2000/svg">
<path d="M19.3125 20.65L15.55 16.8875C15.4125 16.75 15.25 16.725 15.1625 16.725C15.075 16.725 14.9125 16.75 14.775 16.8875L11 20.6625C10.575 21.0875 9.91245 21.775 7.69995 21.775L12.3375 26.4C13.8 27.8625 16.175 27.8625 17.6375 26.4L22.2875 21.7625C21.15 21.7625 20.2 21.5375 19.3125 20.65Z" fill="#2EBDAF"/>
<path d="M11 9.3375L14.775 13.1125C14.875 13.2125 15.025 13.275 15.1625 13.275C15.3 13.275 15.45 13.2125 15.55 13.1125L19.2875 9.375C20.175 8.45 21.1875 8.2375 22.325 8.2375L17.675 3.6C16.2125 2.1375 13.8375 2.1375 12.375 3.6L7.73749 8.225C9.93749 8.225 10.6125 8.95 11 9.3375Z" fill="#2EBDAF"/>
<path d="M26.3875 12.3125L23.575 9.4875H22C21.325 9.4875 20.65 9.7625 20.1875 10.25L16.4375 14C16.0875 14.35 15.625 14.525 15.1625 14.525C14.7125 14.525 14.2375 14.3375 13.8875 14L10.1125 10.2125C9.63749 9.7375 8.98749 9.4625 8.29999 9.4625H6.46249L3.59999 12.3375C2.13749 13.8 2.13749 16.175 3.59999 17.6375L6.46249 20.5125H8.31249C8.98749 20.5125 9.63749 20.2375 10.125 19.7625L13.9 15.9875C14.25 15.6375 14.7125 15.4625 15.175 15.4625C15.6375 15.4625 16.1 15.6375 16.45 15.9875L20.2125 19.75C20.6875 20.225 21.3375 20.5 22.025 20.5H23.6L26.4125 17.675C27.875 16.2 27.875 13.8 26.3875 12.3125Z" fill="#2EBDAF"/>
</svg>
